<mxfile host="app.diagrams.net" modified="2023-10-07T20:45:09.402Z" agent="Mozilla/5.0 (Windows NT 10.0; Win64; x64) AppleWebKit/537.36 (KHTML, like Gecko) Chrome/117.0.0.0 Safari/537.36" etag="1Xn-2RM-WOudpMF1LGua" version="22.0.4" type="google">
  <diagram name="Página-1" id="_u71PqDBtvg84TMBIb-c">
    <mxGraphModel dx="880" dy="438" grid="1" gridSize="10" guides="1" tooltips="1" connect="1" arrows="1" fold="1" page="1" pageScale="1" pageWidth="827" pageHeight="1169" math="0" shadow="0">
      <root>
        <mxCell id="0" />
        <mxCell id="1" parent="0" />
        <mxCell id="z-_8SDCN1toKo0MUTanX-1" value="UC04 - Adicionar Produto" style="shape=umlFrame;whiteSpace=wrap;html=1;pointerEvents=0;recursiveResize=0;container=1;collapsible=0;width=160;" vertex="1" parent="1">
          <mxGeometry x="20" y="40" width="760" height="420" as="geometry" />
        </mxCell>
        <mxCell id="z-_8SDCN1toKo0MUTanX-2" value="" style="ellipse;fillColor=strokeColor;html=1;" vertex="1" parent="z-_8SDCN1toKo0MUTanX-1">
          <mxGeometry x="10" y="130" width="30" height="30" as="geometry" />
        </mxCell>
        <mxCell id="z-_8SDCN1toKo0MUTanX-3" value="" style="ellipse;html=1;shape=endState;fillColor=strokeColor;" vertex="1" parent="z-_8SDCN1toKo0MUTanX-1">
          <mxGeometry x="610" y="330" width="30" height="30" as="geometry" />
        </mxCell>
        <mxCell id="HORB503OH3bndcR4PipN-5" style="edgeStyle=orthogonalEdgeStyle;rounded=0;orthogonalLoop=1;jettySize=auto;html=1;exitX=1;exitY=0.5;exitDx=0;exitDy=0;entryX=0;entryY=0.5;entryDx=0;entryDy=0;" edge="1" parent="z-_8SDCN1toKo0MUTanX-1" source="z-_8SDCN1toKo0MUTanX-4" target="z-_8SDCN1toKo0MUTanX-8">
          <mxGeometry relative="1" as="geometry" />
        </mxCell>
        <mxCell id="z-_8SDCN1toKo0MUTanX-4" value="&lt;br&gt;-do/AdicionarProduto() (fabricante)" style="rounded=1;whiteSpace=wrap;html=1;" vertex="1" parent="z-_8SDCN1toKo0MUTanX-1">
          <mxGeometry x="110" y="112.5" width="120" height="65" as="geometry" />
        </mxCell>
        <mxCell id="z-_8SDCN1toKo0MUTanX-5" value="" style="endArrow=none;html=1;rounded=0;entryX=0.992;entryY=0.329;entryDx=0;entryDy=0;entryPerimeter=0;exitX=0.01;exitY=0.329;exitDx=0;exitDy=0;exitPerimeter=0;" edge="1" parent="z-_8SDCN1toKo0MUTanX-1">
          <mxGeometry width="50" height="50" relative="1" as="geometry">
            <mxPoint x="112.16000000000008" y="142.495" as="sourcePoint" />
            <mxPoint x="230" y="142.495" as="targetPoint" />
          </mxGeometry>
        </mxCell>
        <mxCell id="z-_8SDCN1toKo0MUTanX-6" value="&lt;span style=&quot;font-size: 10px;&quot;&gt;&lt;b&gt;Fazendo upload&amp;nbsp;&lt;br&gt;&lt;/b&gt;&lt;/span&gt;" style="text;html=1;align=center;verticalAlign=middle;resizable=0;points=[];autosize=1;strokeColor=none;fillColor=none;" vertex="1" parent="z-_8SDCN1toKo0MUTanX-1">
          <mxGeometry x="120" y="112.5" width="100" height="30" as="geometry" />
        </mxCell>
        <mxCell id="HORB503OH3bndcR4PipN-3" value="" style="endArrow=classic;html=1;rounded=0;entryX=0;entryY=0.5;entryDx=0;entryDy=0;" edge="1" parent="z-_8SDCN1toKo0MUTanX-1" target="z-_8SDCN1toKo0MUTanX-4">
          <mxGeometry width="50" height="50" relative="1" as="geometry">
            <mxPoint x="40" y="150" as="sourcePoint" />
            <mxPoint x="90" y="100" as="targetPoint" />
          </mxGeometry>
        </mxCell>
        <mxCell id="HORB503OH3bndcR4PipN-12" style="edgeStyle=orthogonalEdgeStyle;rounded=0;orthogonalLoop=1;jettySize=auto;html=1;exitX=1;exitY=0.5;exitDx=0;exitDy=0;entryX=0;entryY=0.5;entryDx=0;entryDy=0;" edge="1" parent="z-_8SDCN1toKo0MUTanX-1" source="z-_8SDCN1toKo0MUTanX-8" target="HORB503OH3bndcR4PipN-8">
          <mxGeometry relative="1" as="geometry" />
        </mxCell>
        <mxCell id="z-_8SDCN1toKo0MUTanX-8" value="" style="rhombus;" vertex="1" parent="z-_8SDCN1toKo0MUTanX-1">
          <mxGeometry x="300" y="130" width="30" height="30" as="geometry" />
        </mxCell>
        <mxCell id="z-_8SDCN1toKo0MUTanX-9" value="" style="rounded=1;whiteSpace=wrap;html=1;" vertex="1" parent="z-_8SDCN1toKo0MUTanX-1">
          <mxGeometry x="255" y="200" width="120" height="65" as="geometry" />
        </mxCell>
        <mxCell id="z-_8SDCN1toKo0MUTanX-10" value="" style="endArrow=none;html=1;rounded=0;entryX=0.992;entryY=0.329;entryDx=0;entryDy=0;entryPerimeter=0;exitX=0.01;exitY=0.329;exitDx=0;exitDy=0;exitPerimeter=0;" edge="1" parent="z-_8SDCN1toKo0MUTanX-1">
          <mxGeometry width="50" height="50" relative="1" as="geometry">
            <mxPoint x="257.1600000000001" y="229.995" as="sourcePoint" />
            <mxPoint x="375" y="229.995" as="targetPoint" />
          </mxGeometry>
        </mxCell>
        <mxCell id="z-_8SDCN1toKo0MUTanX-11" value="&lt;span style=&quot;font-size: 10px;&quot;&gt;&lt;b&gt;Arquivo Recusado&lt;br&gt;&lt;/b&gt;&lt;/span&gt;" style="text;html=1;align=center;verticalAlign=middle;resizable=0;points=[];autosize=1;strokeColor=none;fillColor=none;" vertex="1" parent="z-_8SDCN1toKo0MUTanX-1">
          <mxGeometry x="260" y="200" width="110" height="30" as="geometry" />
        </mxCell>
        <mxCell id="z-_8SDCN1toKo0MUTanX-12" value="" style="endArrow=none;html=1;rounded=0;entryX=0.992;entryY=0.329;entryDx=0;entryDy=0;entryPerimeter=0;exitX=0.01;exitY=0.329;exitDx=0;exitDy=0;exitPerimeter=0;" edge="1" parent="z-_8SDCN1toKo0MUTanX-1">
          <mxGeometry width="50" height="50" relative="1" as="geometry">
            <mxPoint x="257.1600000000001" y="229.995" as="sourcePoint" />
            <mxPoint x="375" y="229.995" as="targetPoint" />
          </mxGeometry>
        </mxCell>
        <mxCell id="HORB503OH3bndcR4PipN-7" style="edgeStyle=orthogonalEdgeStyle;rounded=0;orthogonalLoop=1;jettySize=auto;html=1;exitX=0.5;exitY=1;exitDx=0;exitDy=0;entryX=0.51;entryY=0.1;entryDx=0;entryDy=0;entryPerimeter=0;" edge="1" parent="z-_8SDCN1toKo0MUTanX-1" source="z-_8SDCN1toKo0MUTanX-8" target="z-_8SDCN1toKo0MUTanX-11">
          <mxGeometry relative="1" as="geometry" />
        </mxCell>
        <mxCell id="HORB503OH3bndcR4PipN-17" style="edgeStyle=orthogonalEdgeStyle;rounded=0;orthogonalLoop=1;jettySize=auto;html=1;entryX=0;entryY=0.5;entryDx=0;entryDy=0;exitX=1;exitY=0.5;exitDx=0;exitDy=0;exitPerimeter=0;" edge="1" parent="z-_8SDCN1toKo0MUTanX-1" source="HORB503OH3bndcR4PipN-8" target="HORB503OH3bndcR4PipN-13">
          <mxGeometry relative="1" as="geometry">
            <mxPoint x="510" y="145" as="sourcePoint" />
          </mxGeometry>
        </mxCell>
        <mxCell id="HORB503OH3bndcR4PipN-21" style="edgeStyle=orthogonalEdgeStyle;rounded=0;orthogonalLoop=1;jettySize=auto;html=1;exitX=0.5;exitY=1;exitDx=0;exitDy=0;entryX=0.5;entryY=0;entryDx=0;entryDy=0;" edge="1" parent="z-_8SDCN1toKo0MUTanX-1" source="HORB503OH3bndcR4PipN-8" target="HORB503OH3bndcR4PipN-20">
          <mxGeometry relative="1" as="geometry" />
        </mxCell>
        <mxCell id="HORB503OH3bndcR4PipN-8" value="&lt;br&gt;&lt;br&gt;-do AtualizaCatalogo()" style="rounded=1;whiteSpace=wrap;html=1;" vertex="1" parent="z-_8SDCN1toKo0MUTanX-1">
          <mxGeometry x="370" y="112.5" width="130" height="65" as="geometry" />
        </mxCell>
        <mxCell id="HORB503OH3bndcR4PipN-9" value="" style="endArrow=none;html=1;rounded=0;entryX=0.992;entryY=0.408;entryDx=0;entryDy=0;exitX=0.01;exitY=0.329;exitDx=0;exitDy=0;exitPerimeter=0;entryPerimeter=0;" edge="1" parent="z-_8SDCN1toKo0MUTanX-1" target="HORB503OH3bndcR4PipN-8">
          <mxGeometry width="50" height="50" relative="1" as="geometry">
            <mxPoint x="372.1600000000001" y="142.495" as="sourcePoint" />
            <mxPoint x="490" y="142.495" as="targetPoint" />
          </mxGeometry>
        </mxCell>
        <mxCell id="HORB503OH3bndcR4PipN-10" value="&lt;span style=&quot;font-size: 10px;&quot;&gt;&lt;b&gt;Arquivo Aprovado&lt;br&gt;&lt;/b&gt;&lt;/span&gt;" style="text;html=1;align=center;verticalAlign=middle;resizable=0;points=[];autosize=1;strokeColor=none;fillColor=none;" vertex="1" parent="z-_8SDCN1toKo0MUTanX-1">
          <mxGeometry x="380" y="112.5" width="110" height="30" as="geometry" />
        </mxCell>
        <mxCell id="HORB503OH3bndcR4PipN-19" style="edgeStyle=orthogonalEdgeStyle;rounded=0;orthogonalLoop=1;jettySize=auto;html=1;exitX=0.5;exitY=1;exitDx=0;exitDy=0;entryX=0.5;entryY=0;entryDx=0;entryDy=0;" edge="1" parent="z-_8SDCN1toKo0MUTanX-1" source="HORB503OH3bndcR4PipN-13" target="z-_8SDCN1toKo0MUTanX-3">
          <mxGeometry relative="1" as="geometry" />
        </mxCell>
        <mxCell id="HORB503OH3bndcR4PipN-13" value="" style="rounded=1;whiteSpace=wrap;html=1;" vertex="1" parent="z-_8SDCN1toKo0MUTanX-1">
          <mxGeometry x="550" y="112.5" width="120" height="65" as="geometry" />
        </mxCell>
        <mxCell id="HORB503OH3bndcR4PipN-14" value="" style="endArrow=none;html=1;rounded=0;entryX=0.992;entryY=0.329;entryDx=0;entryDy=0;entryPerimeter=0;exitX=0.01;exitY=0.329;exitDx=0;exitDy=0;exitPerimeter=0;" edge="1" parent="z-_8SDCN1toKo0MUTanX-1">
          <mxGeometry width="50" height="50" relative="1" as="geometry">
            <mxPoint x="552.1600000000001" y="142.495" as="sourcePoint" />
            <mxPoint x="670" y="142.495" as="targetPoint" />
          </mxGeometry>
        </mxCell>
        <mxCell id="HORB503OH3bndcR4PipN-15" value="&lt;span style=&quot;font-size: 10px;&quot;&gt;&lt;b&gt;Catálogo Atualizado&lt;br&gt;&lt;/b&gt;&lt;/span&gt;" style="text;html=1;align=center;verticalAlign=middle;resizable=0;points=[];autosize=1;strokeColor=none;fillColor=none;" vertex="1" parent="z-_8SDCN1toKo0MUTanX-1">
          <mxGeometry x="550" y="112.5" width="120" height="30" as="geometry" />
        </mxCell>
        <mxCell id="HORB503OH3bndcR4PipN-16" value="" style="endArrow=none;html=1;rounded=0;entryX=0.992;entryY=0.329;entryDx=0;entryDy=0;entryPerimeter=0;exitX=0.01;exitY=0.329;exitDx=0;exitDy=0;exitPerimeter=0;" edge="1" parent="z-_8SDCN1toKo0MUTanX-1">
          <mxGeometry width="50" height="50" relative="1" as="geometry">
            <mxPoint x="552.1600000000001" y="142.495" as="sourcePoint" />
            <mxPoint x="670" y="142.495" as="targetPoint" />
          </mxGeometry>
        </mxCell>
        <mxCell id="z-_8SDCN1toKo0MUTanX-14" value="&lt;font style=&quot;font-size: 10px;&quot;&gt;Analisando arquivo&lt;/font&gt;" style="text;html=1;align=center;verticalAlign=middle;resizable=0;points=[];autosize=1;strokeColor=none;fillColor=none;" vertex="1" parent="z-_8SDCN1toKo0MUTanX-1">
          <mxGeometry x="220" y="100" width="110" height="30" as="geometry" />
        </mxCell>
        <mxCell id="z-_8SDCN1toKo0MUTanX-19" value="" style="rounded=1;whiteSpace=wrap;html=1;" vertex="1" parent="z-_8SDCN1toKo0MUTanX-1">
          <mxGeometry x="375" y="295" width="120" height="65" as="geometry" />
        </mxCell>
        <mxCell id="z-_8SDCN1toKo0MUTanX-20" value="" style="endArrow=none;html=1;rounded=0;entryX=0.992;entryY=0.329;entryDx=0;entryDy=0;entryPerimeter=0;exitX=0.01;exitY=0.329;exitDx=0;exitDy=0;exitPerimeter=0;" edge="1" parent="z-_8SDCN1toKo0MUTanX-1">
          <mxGeometry width="50" height="50" relative="1" as="geometry">
            <mxPoint x="377.1600000000001" y="324.995" as="sourcePoint" />
            <mxPoint x="495" y="324.995" as="targetPoint" />
          </mxGeometry>
        </mxCell>
        <mxCell id="z-_8SDCN1toKo0MUTanX-21" value="&lt;span style=&quot;font-size: 10px;&quot;&gt;&lt;b&gt;Remover Produto&lt;br&gt;&lt;/b&gt;&lt;/span&gt;" style="text;html=1;align=center;verticalAlign=middle;resizable=0;points=[];autosize=1;strokeColor=none;fillColor=none;" vertex="1" parent="z-_8SDCN1toKo0MUTanX-1">
          <mxGeometry x="380" y="295" width="110" height="30" as="geometry" />
        </mxCell>
        <mxCell id="z-_8SDCN1toKo0MUTanX-22" value="" style="endArrow=none;html=1;rounded=0;entryX=0.992;entryY=0.329;entryDx=0;entryDy=0;entryPerimeter=0;exitX=0.01;exitY=0.329;exitDx=0;exitDy=0;exitPerimeter=0;" edge="1" parent="z-_8SDCN1toKo0MUTanX-1">
          <mxGeometry width="50" height="50" relative="1" as="geometry">
            <mxPoint x="377.1600000000001" y="324.995" as="sourcePoint" />
            <mxPoint x="495" y="324.995" as="targetPoint" />
          </mxGeometry>
        </mxCell>
        <mxCell id="z-_8SDCN1toKo0MUTanX-24" value="-do/RemoverProduto()" style="text;html=1;align=center;verticalAlign=middle;resizable=0;points=[];autosize=1;strokeColor=none;fillColor=none;" vertex="1" parent="z-_8SDCN1toKo0MUTanX-1">
          <mxGeometry x="365" y="330" width="140" height="30" as="geometry" />
        </mxCell>
        <mxCell id="HORB503OH3bndcR4PipN-20" value="" style="rhombus;" vertex="1" parent="z-_8SDCN1toKo0MUTanX-1">
          <mxGeometry x="420" y="220" width="30" height="30" as="geometry" />
        </mxCell>
        <mxCell id="z-_8SDCN1toKo0MUTanX-25" value="Removendo produto" style="edgeStyle=orthogonalEdgeStyle;rounded=0;orthogonalLoop=1;jettySize=auto;html=1;exitX=0.5;exitY=1;exitDx=0;exitDy=0;entryX=0.518;entryY=0;entryDx=0;entryDy=0;entryPerimeter=0;" edge="1" parent="z-_8SDCN1toKo0MUTanX-1" source="HORB503OH3bndcR4PipN-20" target="z-_8SDCN1toKo0MUTanX-21">
          <mxGeometry x="0.0426" y="53" relative="1" as="geometry">
            <mxPoint y="-3" as="offset" />
          </mxGeometry>
        </mxCell>
        <mxCell id="HORB503OH3bndcR4PipN-22" value="" style="edgeStyle=orthogonalEdgeStyle;rounded=0;orthogonalLoop=1;jettySize=auto;html=1;exitX=0.929;exitY=-0.033;exitDx=0;exitDy=0;entryX=0;entryY=0.5;entryDx=0;entryDy=0;exitPerimeter=0;" edge="1" parent="z-_8SDCN1toKo0MUTanX-1" source="z-_8SDCN1toKo0MUTanX-24" target="z-_8SDCN1toKo0MUTanX-3">
          <mxGeometry x="0.0426" y="53" relative="1" as="geometry">
            <mxPoint x="505" y="325" as="sourcePoint" />
            <mxPoint x="507" y="370" as="targetPoint" />
            <mxPoint y="-3" as="offset" />
          </mxGeometry>
        </mxCell>
        <mxCell id="HORB503OH3bndcR4PipN-2" value="" style="endArrow=none;html=1;rounded=0;entryX=0.992;entryY=0.329;entryDx=0;entryDy=0;entryPerimeter=0;exitX=0.01;exitY=0.329;exitDx=0;exitDy=0;exitPerimeter=0;" edge="1" parent="1">
          <mxGeometry width="50" height="50" relative="1" as="geometry">
            <mxPoint x="132.16000000000008" y="182.495" as="sourcePoint" />
            <mxPoint x="250" y="182.495" as="targetPoint" />
          </mxGeometry>
        </mxCell>
        <mxCell id="z-_8SDCN1toKo0MUTanX-13" value="else" style="text;html=1;align=center;verticalAlign=middle;resizable=0;points=[];autosize=1;strokeColor=none;fillColor=none;" vertex="1" parent="1">
          <mxGeometry x="285" y="198" width="50" height="30" as="geometry" />
        </mxCell>
      </root>
    </mxGraphModel>
  </diagram>
</mxfile>
